# xmcd
#
# Track frame offsets:
#	150
#	16656
#	35566
#	52810
#	74886
#	89969
#	103266
#	115366
#	130601
#	142423
#	153226
#	166097
#
# Disc length: 2594 seconds
# Revision: 0
# Processed by: cddbd v1.5.2PL0 Copyright (c) Steve Scherf et al.
# Submitted via: dBpowerAMP V12.0
#
DISCID=ab0a200c
DTITLE=Chad Darou - Raising the Bar
DYEAR=2018
DGENRE=Bluegrass
TTITLE0=Raising the Bar
TTITLE1=Heaven
TTITLE2=Tennessee  Blues
TTITLE3=The Road
TTITLE4=High, Dry and Lonesome
TTITLE5=Paddy on the Turnpike
TTITLE6=On My Way Home
TTITLE7=Few Old Memories
TTITLE8=That's What I Like About You
TTITLE9=Kristin's Tune
TTITLE10=Peace of Mind
TTITLE11=Comfortably Numb
EXTD=
EXTT0=
EXTT1=
EXTT2=
EXTT3=
EXTT4=
EXTT5=
EXTT6=
EXTT7=
EXTT8=
EXTT9=
EXTT10=
EXTT11=
PLAYORDER=
